<svg width="400" height="400" viewBox="0 0 400 400" fill="none" xmlns="http://www.w3.org/2000/svg">
<rect width="400" height="400" rx="200" fill="#0051FF"/>
<path d="M369.962 200C369.962 106.133 293.867 30.0381 200 30.0381C106.133 30.0381 30.0381 106.133 30.0381 200C30.0381 293.867 106.133 369.962 200 369.962V384C98.3796 384 16 301.62 16 200C16 98.3796 98.3796 16 200 16C301.62 16 384 98.3796 384 200C384 301.62 301.62 384 200 384V369.962C293.867 369.962 369.962 293.867 369.962 200Z" fill="white"/>
<path fill-rule="evenodd" clip-rule="evenodd" d="M199.998 80.001C205.417 80.074 210.638 81.9599 214.746 85.3298C249.308 112.124 290.121 150.507 298.992 210.066C300.95 223.254 300.049 236.684 296.344 249.527C292.639 262.37 286.209 274.354 277.452 284.736C268.954 294.809 258.376 303.112 246.374 309.134C234.372 315.155 221.199 318.766 207.673 319.742C205.22 319.998 202.733 319.999 200.28 319.999C187.498 320.062 174.831 317.695 163.02 313.04C151.209 308.384 140.49 301.532 131.493 292.884C110.91 273.132 99.7359 244.816 100.005 213.188V212.852C100.862 184.921 116.454 153.756 146.361 120.143C157.788 107.473 170.558 95.9622 184.469 85.7938C188.794 82.2218 194.277 80.1769 199.998 80.001ZM197.382 129.383C196.1 129.383 194.83 129.634 193.646 130.123C192.462 130.613 191.385 131.331 190.479 132.236C189.573 133.14 188.854 134.213 188.363 135.394C187.873 136.576 187.621 137.843 187.621 139.121V146.75C183.351 147.432 179.151 148.546 175.089 150.08C168.681 152.453 163.114 156.655 159.082 162.162L159.071 162.177L159.061 162.192C155.34 167.48 153.387 173.805 153.476 180.264C153.256 186.658 155.114 192.951 158.773 198.205L158.798 198.239L158.822 198.271C162.518 203.134 167.401 206.974 173.004 209.421C179.854 212.452 186.995 214.777 194.316 216.365C200.49 217.771 205.378 219.095 209.004 220.332L209.024 220.338L209.043 220.344C212.152 221.333 214.985 223.037 217.313 225.319C218.305 226.37 219.078 227.607 219.586 228.959C220.098 230.32 220.331 231.77 220.272 233.222L220.27 233.259V233.297C220.263 235.369 219.745 237.41 218.761 239.236C217.778 241.062 216.359 242.619 214.63 243.768L214.586 243.797L214.544 243.828C210.624 246.745 205.418 248.29 198.757 248.29H198.717L198.677 248.292C194.781 248.45 190.902 247.684 187.359 246.06C184.787 244.803 182.567 242.932 180.894 240.613C179.064 237.85 177.536 234.899 176.337 231.811C175.326 228.91 173.677 226.271 171.509 224.089L171.478 224.058L171.447 224.03L171.049 223.68C169.03 221.992 166.462 221.083 163.817 221.131C162.198 221.104 160.589 221.396 159.083 221.992C157.555 222.596 156.164 223.501 154.993 224.652C153.822 225.803 152.895 227.177 152.266 228.692C151.638 230.207 151.319 231.834 151.332 233.474L151.333 233.498V233.52C151.513 239.283 153.337 244.875 156.59 249.638C159.978 255.03 164.616 259.531 170.111 262.76L170.117 262.763C175.128 265.685 180.974 267.638 187.621 268.66V276.68C187.621 279.263 188.649 281.74 190.479 283.567C192.309 285.393 194.793 286.42 197.382 286.42H201.23C203.818 286.419 206.301 285.393 208.131 283.567C209.962 281.74 210.99 279.263 210.991 276.68V268.716C215.776 267.928 220.464 266.574 224.953 264.671L224.958 264.669C231.736 261.775 237.523 256.973 241.611 250.851L241.628 250.824C245.455 244.892 247.447 237.967 247.356 230.913C247.519 225.504 246.386 220.134 244.05 215.25L244.037 215.223L244.023 215.197L243.599 214.403C241.419 210.475 238.374 207.086 234.689 204.495L234.679 204.488L234.669 204.481L233.855 203.934C230.031 201.414 225.91 199.372 221.587 197.855L220.657 197.538C214.781 195.53 208.805 193.828 202.753 192.438C197.546 191.129 193.865 190.142 191.677 189.471C189.473 188.793 187.344 187.893 185.321 186.786L185.305 186.777L185.29 186.77L184.958 186.591C183.327 185.681 181.894 184.456 180.739 182.987C179.725 181.612 179.194 179.94 179.232 178.233L179.233 178.211V178.189C179.233 175.304 180.538 172.74 183.616 170.417L183.919 170.192C187.199 167.852 191.644 166.588 197.428 166.588C203.768 166.588 207.947 167.785 210.374 169.783C213.392 172.412 215.814 175.653 217.476 179.291L217.498 179.338C218.763 181.927 220.411 184.312 222.386 186.412L222.461 186.49L222.543 186.56C224.61 188.327 227.284 189.217 229.998 189.049C231.67 189.065 233.327 188.718 234.85 188.027C236.389 187.329 237.755 186.297 238.848 185.01C241.062 182.6 242.296 179.45 242.303 176.179V176.14C242.239 172.573 241.35 169.067 239.704 165.9L239.702 165.898L239.323 165.193C237.387 161.698 234.794 158.604 231.685 156.081C227.666 152.788 223.056 150.286 218.101 148.708L218.095 148.707C215.762 147.97 213.389 147.38 210.991 146.938V139.121C210.99 137.843 210.737 136.576 210.247 135.394C209.757 134.213 209.038 133.14 208.131 132.236C207.225 131.331 206.149 130.613 204.965 130.123C203.781 129.634 202.511 129.383 201.23 129.383H197.382Z" fill="white"/>
<path d="M199.998 80.001C199.799 79.9977 200.197 80.0042 199.998 80.001V80.001Z" fill="white"/>
</svg>
